<svg width="250" height="171" viewBox="0 0 250 171" fill="none" xmlns="http://www.w3.org/2000/svg">
<g opacity="0.1" clip-path="url(#clip0_3318_6405)">
<path d="M29.6094 80.1914C17.4696 75.8615 13.0282 78.3527 14.5679 73.8449L14.331 66.7866C-3.49369 73.489 -6.39539 82.5639 15.3377 90.334C49.6844 102.612 117.904 103.739 158.468 93.7148C117.608 100.477 60.2252 91.105 29.6094 80.1914Z" fill="#D9D9D9"/>
<path d="M199.566 21.8865V75.6836C199.507 79.6575 194.769 83.6908 184.228 87.4869C146.388 101.01 67.5091 101.01 29.6686 87.4869C19.483 83.8688 14.7456 79.9541 14.3311 76.0988V21.8865H199.566Z" fill="white" stroke="#5E6662" stroke-miterlimit="10" stroke-linecap="square" stroke-linejoin="round"/>
<path d="M184.287 34.105C146.447 47.6284 67.5681 47.6284 29.7276 34.105C0.118479 23.4879 16.1666 10.4983 53.4742 4.32976C84.9191 -0.949113 129.096 -0.949113 160.482 4.32976C197.789 10.4983 213.837 23.4879 184.287 34.105Z" fill="white" stroke="#5E6662" stroke-miterlimit="10" stroke-linecap="square" stroke-linejoin="round"/>
<path d="M88.1763 20.7594C78.6422 18.3276 79.945 14.7095 90.0121 12.6335C99.5463 10.6762 114.41 10.6762 123.944 12.6335C134.011 14.7095 135.314 18.3869 125.78 20.7594C115.654 23.3099 98.3027 23.3099 88.1763 20.7594ZM121.279 13.2267C113.285 11.5659 100.731 11.5659 92.7362 13.2267C84.3272 15.0061 83.4981 18.031 91.4334 19.9884C99.8424 22.0643 114.114 22.0643 122.523 19.9884C130.517 18.031 129.629 15.0061 121.279 13.2267Z" fill="#5E6662"/>
<path d="M165.456 25.8604C163.68 26.6907 161.548 27.5211 159.001 28.2922C132.353 36.4774 81.603 36.4774 55.014 28.2922C52.4676 27.5211 50.2765 26.6907 48.5 25.8604" stroke="#5E6662" stroke-miterlimit="10" stroke-linecap="square" stroke-linejoin="round"/>
<path d="M152.783 23.8437C151.303 24.4962 149.526 25.0893 147.513 25.6824C126.372 31.7917 87.5839 31.7917 66.4429 25.6824C64.3703 25.0893 62.5937 24.4369 61.1133 23.7844" stroke="#5E6662" stroke-miterlimit="10" stroke-linecap="square" stroke-linejoin="round"/>
<path d="M140.762 21.9458C139.578 22.4203 138.216 22.8355 136.676 23.2507C120.924 27.5212 92.9729 27.5212 77.2208 23.2507C75.6219 22.8355 74.2599 22.361 73.1348 21.8865" stroke="#5E6662" stroke-miterlimit="10" stroke-linecap="square" stroke-linejoin="round"/>
<path d="M107.718 6.58378C105.942 6.93966 103.099 6.93966 101.323 6.58378C99.6053 6.2279 99.6645 5.69408 101.441 5.3382C103.158 4.98232 106.001 4.98232 107.718 5.3382C109.436 5.69408 109.495 6.2279 107.718 6.58378Z" fill="#00A0AB"/>
<path d="M76.2734 34.1645L78.5237 32.8596L80.8332 33.0969C97.9473 34.9356 117.371 34.9356 134.426 33.0969L136.735 32.8596L138.986 34.1645L136.676 34.4018C118.2 36.4184 97.1775 36.4184 78.6422 34.4018L76.2734 34.1645Z" fill="#5E6662"/>
<path d="M82.8467 30.3091L84.9193 29.1228L87.1696 29.3601C100.257 30.7243 115.061 30.7243 128.149 29.3601L130.34 29.1228L132.412 30.3091L130.162 30.5463C115.772 32.0885 99.487 32.0885 85.097 30.5463L82.8467 30.3091Z" fill="#5E6662"/>
<path d="M88.8276 26.7502L90.7226 25.6233L92.8545 25.8605C102.27 26.8096 112.811 26.8096 122.168 25.8605L124.299 25.6233L126.194 26.7502L124.003 26.9875C113.403 28.0551 101.5 28.0551 90.9003 26.9875L88.8276 26.7502Z" fill="#5E6662"/>
<mask id="mask0_3318_6405" style="mask-type:luminance" maskUnits="userSpaceOnUse" x="14" y="37" width="186" height="45">
<path d="M199.566 59.1352C199.507 63.1092 194.769 67.1425 184.228 70.9385C146.388 84.4619 67.5091 84.4619 29.6686 70.9385C19.483 67.3204 14.7456 63.4058 14.3311 59.5504V38.3163C14.3903 42.2902 19.1277 46.3235 29.6686 50.1196C67.5091 63.643 146.388 63.643 184.228 50.1196C195.302 46.1456 199.98 41.8751 199.507 37.6638L199.566 59.1352Z" fill="white"/>
</mask>
<g mask="url(#mask0_3318_6405)">
<path d="M110.442 33.2747H103.514V90.5712H110.442V33.2747Z" fill="#5E6662"/>
<path d="M99.7234 33.2747H93.4463V90.5712H99.7234V33.2747Z" fill="#5E6662"/>
<path d="M120.509 33.2747H114.232V90.5712H120.509V33.2747Z" fill="#5E6662"/>
<path d="M129.866 33.2747H124.299V90.5712H129.866V33.2747Z" fill="#5E6662"/>
<path d="M89.6564 33.2747H84.0898V90.5712H89.6564V33.2747Z" fill="#5E6662"/>
<path d="M80.2407 33.2747H75.3848V90.5712H80.2407V33.2747Z" fill="#5E6662"/>
<path d="M138.512 33.2747H133.656V90.5712H138.512V33.2747Z" fill="#5E6662"/>
<path d="M146.506 33.2747H142.361V90.5712H146.506V33.2747Z" fill="#5E6662"/>
<path d="M71.5359 33.2747H67.3906V90.5712H71.5359V33.2747Z" fill="#5E6662"/>
<path d="M63.6003 33.2747H60.1064V90.5712H63.6003V33.2747Z" fill="#5E6662"/>
<path d="M153.849 33.2747H150.355V90.5712H153.849V33.2747Z" fill="#5E6662"/>
<path d="M160.422 33.2747H157.639V90.5712H160.422V33.2747Z" fill="#5E6662"/>
<path d="M56.3165 33.2747H53.5332V90.5712H56.3165V33.2747Z" fill="#5E6662"/>
<path d="M49.7435 33.2747H47.6709V90.5712H49.7435V33.2747Z" fill="#5E6662"/>
<path d="M166.285 33.2747H164.212V90.5712H166.285V33.2747Z" fill="#5E6662"/>
<path d="M171.437 33.2747H170.075V90.5712H171.437V33.2747Z" fill="#5E6662"/>
<path d="M43.8215 33.2747H42.4595V90.5712H43.8215V33.2747Z" fill="#5E6662"/>
<path d="M38.6696 33.2747H37.959V90.5712H38.6696V33.2747Z" fill="#5E6662"/>
<path d="M34.1097 33.2747H33.7544V90.5712H34.1097V33.2747Z" fill="#5E6662"/>
<path d="M29.9647 33.2747H29.6094V90.5712H29.9647V33.2747Z" fill="#5E6662"/>
<path d="M21.6742 33.2747H21.3188V90.5712H21.6742V33.2747Z" fill="#5E6662"/>
<path d="M25.8192 33.2747H25.4639V90.5712H25.8192V33.2747Z" fill="#5E6662"/>
<path d="M17.5286 33.2747H17.1733V90.5712H17.5286V33.2747Z" fill="#5E6662"/>
<path d="M175.997 33.2747H175.286V90.5712H175.997V33.2747Z" fill="#5E6662"/>
<path d="M180.142 33.2747H179.787V90.5712H180.142V33.2747Z" fill="#5E6662"/>
<path d="M184.347 33.2747H183.991V90.5712H184.347V33.2747Z" fill="#5E6662"/>
<path d="M188.492 33.2747H188.137V90.5712H188.492V33.2747Z" fill="#5E6662"/>
<path d="M192.637 33.2747H192.282V90.5712H192.637V33.2747Z" fill="#5E6662"/>
<path d="M196.783 33.2747H196.427V90.5712H196.783V33.2747Z" fill="#5E6662"/>
</g>
<path d="M129.748 153.028C117.608 148.698 113.166 148.995 114.706 144.487L114.469 137.429C96.6445 144.131 93.7428 153.206 115.476 160.976C149.823 173.254 218.042 174.381 258.607 164.357C217.687 171.119 160.304 163.942 129.748 153.028Z" fill="#D9D9D9"/>
<path d="M114.469 91.1646V146.385C114.825 150.241 119.621 154.155 129.807 157.773C167.647 171.297 246.526 171.297 284.367 157.773C294.907 154.037 299.586 149.944 299.704 145.97V91.1646H114.469Z" fill="white" stroke="#5E6662" stroke-miterlimit="10" stroke-linecap="square" stroke-linejoin="round"/>
<path d="M284.367 103.324C246.526 116.847 167.647 116.847 129.807 103.324C100.198 92.7659 116.305 79.7764 153.553 73.5485C184.998 68.3289 229.175 68.3289 260.62 73.5485C297.868 79.7764 313.976 92.7659 284.367 103.324Z" fill="white" stroke="#5E6662" stroke-miterlimit="10" stroke-linecap="square" stroke-linejoin="round"/>
<path d="M200.336 110.797L200.218 108.425C205.014 108.247 209.574 107.535 213.009 106.349C220.648 103.62 219.76 99.4683 211.587 97.0364C203.771 94.7232 191.69 94.7232 183.992 97.0364C175.938 99.4683 175.227 103.62 183.044 106.349C186.538 107.535 191.039 108.247 195.776 108.425V110.797C195.776 110.856 195.835 110.856 195.895 110.916C195.954 110.916 196.072 110.975 196.191 110.975H199.862C199.981 110.975 200.099 110.975 200.158 110.916C200.336 110.916 200.336 110.856 200.336 110.797ZM200.158 106.942L200.099 105.281C200.099 105.222 199.921 105.162 199.685 105.162H196.191C195.954 105.162 195.776 105.222 195.776 105.281V106.942C192.223 106.764 188.848 106.23 186.183 105.34C185.413 105.103 184.821 104.806 184.229 104.51C184.347 104.51 184.465 104.569 184.465 104.569C190.21 105.222 193.111 104.629 193.111 104.629C193.23 104.629 193.23 104.569 193.23 104.51C193.23 104.451 193.111 104.451 192.993 104.451C192.993 104.451 192.697 104.451 192.223 104.391C191.749 104.332 191.039 104.213 190.269 104.035C189.025 103.739 188.315 103.561 187.959 103.502C189.617 103.62 193.94 103.857 197.079 103.857C201.047 103.857 203.238 103.205 203.948 103.027C204.126 102.968 204.185 102.968 204.185 102.968C204.244 102.908 204.244 102.908 204.126 102.849C204.007 102.79 203.889 102.79 203.771 102.849C203.652 102.849 202.468 103.027 197.908 102.671C194.71 102.375 193.23 102.137 192.697 101.959C193.526 101.9 195.302 101.663 197.967 100.951C200.454 100.299 202.764 100.121 204.481 100.121C205.37 100.121 206.08 100.121 206.554 100.18C207.028 100.239 207.324 100.239 207.324 100.239C207.442 100.239 207.561 100.239 207.62 100.18C207.679 100.121 207.679 100.121 207.561 100.061C207.561 100.061 202.764 98.5786 195.421 99.5869C192.815 99.9428 191.098 100.061 190.032 100.121C190.387 100.061 190.861 99.9428 191.335 99.7648C191.986 99.5869 192.697 99.2903 193.526 98.9344C193.881 98.7565 194.236 98.6379 194.533 98.5786C195.598 98.2227 196.664 98.1041 197.375 98.1041C197.73 98.1041 198.026 98.1041 198.263 98.1041C198.5 98.1041 198.559 98.1041 198.559 98.1041C198.678 98.1041 198.796 98.1041 198.855 98.0447C198.915 97.9854 198.915 97.9854 198.796 97.9261C198.796 97.9261 197.849 97.6889 196.428 97.6296C194.947 97.5702 192.934 97.6296 190.683 98.2227C188.848 98.6972 187.189 98.8158 186.064 98.8158C185.413 98.8158 184.643 98.7565 184.584 98.7565C185.176 98.5193 185.827 98.282 186.538 98.0447C192.697 96.1467 202.409 96.1467 208.686 98.0447C215.141 100.002 215.733 103.264 209.633 105.4C207.205 106.23 203.771 106.764 200.158 106.942Z" fill="#191919"/>
<path d="M282.294 87.7836L207.738 73.7856L216.562 72.6587L291.177 86.36L282.294 87.7836Z" fill="#D9D9D9"/>
<path d="M263.877 91.1645L188.137 76.3362L204.955 74.1416L280.991 88.4361L263.877 91.1645Z" fill="#D9D9D9"/>
<path d="M205.31 88.3767L173.51 81.8523L122.108 88.9699L151.718 97.333L205.31 88.3767Z" fill="#D9D9D9"/>
<mask id="mask1_3318_6405" style="mask-type:luminance" maskUnits="userSpaceOnUse" x="114" y="107" width="186" height="44">
<path d="M299.704 128.71C299.645 132.684 294.907 136.717 284.367 140.513C246.526 154.036 167.647 154.036 129.807 140.513C119.621 136.895 114.884 132.98 114.469 129.125V107.891C114.528 111.865 119.266 115.898 129.807 119.694C167.647 133.217 246.526 133.217 284.367 119.694C295.44 115.72 300.119 111.45 299.645 107.238L299.704 128.71Z" fill="white"/>
</mask>
<g mask="url(#mask1_3318_6405)">
<path d="M210.58 102.849H203.652V160.146H210.58V102.849Z" fill="#5E6662"/>
<path d="M199.862 102.849H193.584V160.146H199.862V102.849Z" fill="#5E6662"/>
<path d="M220.647 102.849H214.37V160.146H220.647V102.849Z" fill="#5E6662"/>
<path d="M230.004 102.849H224.438V160.146H230.004V102.849Z" fill="#5E6662"/>
<path d="M189.795 102.849H184.228V160.146H189.795V102.849Z" fill="#5E6662"/>
<path d="M180.379 102.849H175.523V160.146H180.379V102.849Z" fill="#5E6662"/>
<path d="M238.65 102.849H233.794V160.146H238.65V102.849Z" fill="#5E6662"/>
<path d="M246.644 102.849H242.499V160.146H246.644V102.849Z" fill="#5E6662"/>
<path d="M171.674 102.849H167.529V160.146H171.674V102.849Z" fill="#5E6662"/>
<path d="M163.739 102.849H160.245V160.146H163.739V102.849Z" fill="#5E6662"/>
<path d="M156.455 102.849H153.671V160.146H156.455V102.849Z" fill="#5E6662"/>
<path d="M149.882 102.849H147.809V160.146H149.882V102.849Z" fill="#5E6662"/>
<path d="M143.96 102.849H142.598V160.146H143.96V102.849Z" fill="#5E6662"/>
<path d="M138.808 102.849H138.097V160.146H138.808V102.849Z" fill="#5E6662"/>
<path d="M134.248 102.849H133.893V160.146H134.248V102.849Z" fill="#5E6662"/>
<path d="M130.103 102.849H129.748V160.146H130.103V102.849Z" fill="#5E6662"/>
<path d="M121.812 102.849H121.457V160.146H121.812V102.849Z" fill="#5E6662"/>
<path d="M125.957 102.849H125.602V160.146H125.957V102.849Z" fill="#5E6662"/>
<path d="M117.667 102.849H117.312V160.146H117.667V102.849Z" fill="#5E6662"/>
</g>
</g>
<defs>
<clipPath id="clip0_3318_6405">
<rect width="300" height="171" fill="white"/>
</clipPath>
</defs>
</svg>
